<?xml version="1.0" encoding="utf-8"?>
<!-- Svg Vector Icons : http://www.onlinewebfonts.com/icon -->
<!DOCTYPE svg PUBLIC "-//W3C//DTD SVG 1.1//EN" "http://www.w3.org/Graphics/SVG/1.1/DTD/svg11.dtd">
<svg version="1.1" xmlns="http://www.w3.org/2000/svg" xmlns:xlink="http://www.w3.org/1999/xlink" x="0px" y="0px" viewBox="0 0 1000 1000" enable-background="new 0 0 1000 1000" xml:space="preserve">
<metadata> Svg Vector Icons : http://www.onlinewebfonts.com/icon </metadata>
<g><g transform="translate(0.000000,512.000000) scale(0.100000,-0.100000)"><path d="M4108.5,4999c-767.7-76.6-1537.3-392.5-2167.2-890.2c-208.7-164.6-566.7-534.1-725.6-752.4c-760-1030-1010.8-2299.3-694.9-3516.8C926.7-1738,2215.1-2924.9,3830.9-3212.1c287.2-51.7,838.5-68.9,1131.4-36.4c616.4,67,1261.6,287.2,1747.9,593.5c67,42.1,128.3,76.6,137.8,76.6s134-116.8,275.7-258.5l258.5-258.4L7185-3292.5l-195.3-195.3l647.1-647.1L8282-4780l666.2,666.2l664.3,664.3L8975-2812c-348.4,348.4-645.2,635.6-654.7,635.6c-9.6,0-103.4-84.2-204.9-185.7l-187.6-187.6l-237.4,237.4l-239.3,237.4l134,143.6c568.6,610.7,953.4,1430.1,1060.6,2268.6c32.5,260.4,38.3,771.5,9.6,1008.9c-137.8,1129.5-727.5,2163.3-1617.7,2833.4C6199.1,4811.4,5150,5104.3,4108.5,4999z M5132.7,4667.8C6851.9,4382.5,8148,3025.2,8350.9,1300.3c32.5-271.9,11.5-846.2-38.3-1112.3c-132.1-710.3-449.9-1351.6-924.7-1876.2c-936.2-1030-2274.4-1470.3-3643.2-1194.6C2948.3-2722,2151.9-2251,1614-1615.4C316-87.7,405.9,2167.5,1822.6,3586.1c606.9,608.8,1382.2,987.9,2257.1,1102.7C4330.6,4721.4,4878.1,4709.9,5132.7,4667.8z M8728-3893.6L8282-4339.7l-425,425L7430-3487.8l444.1,444.2l446.1,446.1l425-425l426.9-426.9L8728-3893.6z"/><path d="M4098.9,4388.3c-641.3-82.3-1299.9-363.7-1791.9-765.8C1227.2,2741.8,763.9,1327.1,1110.5-16.9c254.6-982.1,918.9-1805.3,1830.2-2264.8c827-419.3,1811.1-493.9,2695.5-206.8c275.7,90,719.8,314,949.6,478.6c216.3,155.1,532.2,453.7,694.9,654.7c673.9,832.8,936.2,1918.3,716,2957.8c-315.9,1491.4-1529.6,2597.9-3055.4,2787.5C4755.6,4413.2,4280.8,4411.2,4098.9,4388.3z M4500.9,1309.8c30.6-7.7,47.9-26.8,47.9-49.8c0-34.5-11.5-38.3-114.9-32.5c-135.9,7.7-189.5-30.6-178-124.4c3.8-44,26.8-65.1,139.8-124.4c157-82.3,201-130.2,201-218.3c0-137.8-72.7-212.5-227.8-231.6c-91.9-9.6-231.6,21.1-231.6,51.7c0,63.2,21.1,70.8,107.2,42.1c74.7-24.9,93.8-24.9,157,0c145.5,55.5,120.6,193.3-49.8,268c-139.8,61.3-195.3,122.5-195.3,218.2C4156.3,1269.6,4313.3,1361.5,4500.9,1309.8z M5213.1,1307.9c53.6-15.3,67-28.7,59.3-55.5c-7.6-30.6-24.9-34.5-137.8-24.9c-155.1,9.6-225.9-19.1-291-122.5c-30.6-51.7-42.1-99.5-42.1-178c0-170.4,67-268,210.6-306.3c72.7-19.2,116.8-17.2,222.1,11.5c24.9,5.7,32.6-3.8,32.6-38.3c0-36.4-11.5-49.8-59.4-59.4c-229.7-45.9-446.1,55.5-493.9,233.6C4617.7,1112.7,4881.9,1399.8,5213.1,1307.9z M2084.9,997.8c-3.8-248.9-13.4-323.6-38.3-371.4c-40.2-72.7-118.7-107.2-218.2-99.5c-59.4,3.8-74.7,13.4-74.7,44c0,28.7,11.5,36.4,47.9,32.5c59.3-5.8,147.4,28.7,160.8,65.1c5.8,15.3,11.5,164.6,13.4,333.1l3.8,306.3h55.5h57.4L2084.9,997.8z M2701.4,942.3c68.9-202.9,128.3-375.2,130.2-382.9c3.8-9.6-17.2-17.2-49.8-17.2c-51.7,0-57.4,7.6-90,114.9l-34.5,116.8l-143.6-5.7l-143.6-5.7l-38.3-109.1c-30.6-93.8-42.1-111-82.3-111c-24.9,0-45.9,7.6-45.9,17.2c0,13.4,160.8,490.1,229.7,687.3c19.1,51.7,32.5,61.3,82.3,61.3h61.3L2701.4,942.3z M2929.2,1265.8c9.6-24.9,55.5-166.6,99.6-315.9c45.9-151.3,88.1-273.8,93.8-273.8s55.5,143.6,113,315.9c101.5,308.2,105.3,315.9,157,315.9h53.6l-95.7-271.9c-53.6-151.2-114.9-323.5-135.9-384.8c-36.4-105.3-42.1-111.1-97.6-105.3c-57.4,5.7-59.4,7.7-180,369.5c-67,199.1-120.6,369.5-120.6,377.1c0,9.6,21.1,15.3,47.9,15.3C2896.6,1307.9,2919.6,1294.5,2929.2,1265.8z M3920.9,934.6c67-199.1,120.6-369.5,120.6-377.2c0-9.6-21.1-15.3-45.9-15.3c-40.2,0-51.7,17.2-82.3,111l-38.3,109.1l-143.6,5.7l-143.6,5.7L3553.3,657c-30.6-103.4-40.2-114.9-88.1-114.9h-51.7L3539.9,925l128.3,384.8l65.1-5.7l65.1-5.7L3920.9,934.6z M5823.8,1235.2c34.5-40.2,55.5-82.3,55.5-120.6c0-59.3-47.9-170.4-72.7-170.4c-7.7,0-24.9-7.7-40.2-17.2c-21.1-13.4-17.2-24.9,13.4-55.5c23-23,53.6-90,70.8-151.3c17.2-61.3,36.4-126.3,42.1-145.5c7.7-28.7,0-34.5-44-28.7c-49.8,5.7-57.4,17.2-86.2,126.3c-40.2,157-76.6,195.3-183.8,195.3h-82.3V704.9c0-160.8,0-162.7-47.9-162.7h-47.9V927v384.8l183.8-7.7C5764.5,1298.4,5768.3,1296.4,5823.8,1235.2z M6128.2,925V542.2h-57.4h-57.4V925v382.9h57.4h57.4V925z M6677.7,1269.6c101.5-61.3,122.5-239.3,42.1-338.9c-42.1-49.8-132.1-84.2-229.7-86.2l-93.8-1.9V691.5c0-147.4,0-149.3-47.9-149.3h-47.9V925v382.9h158.9C6582,1307.9,6629.8,1300.3,6677.7,1269.6z M7391.8,1269.6c0-34.5-13.4-38.3-114.9-38.3H7162V886.8V542.2h-57.4h-57.4v344.6v344.6h-114.9c-101.5,0-114.9,3.8-114.9,38.3c0,36.4,13.4,38.3,287.2,38.3C7378.3,1307.9,7391.8,1306,7391.8,1269.6z"/><path d="M2502.3,1173.9c-19.1-51.7-107.2-312.1-107.2-319.7c0-3.8,51.7-5.7,114.9-5.7s114.9,1.9,114.9,5.7C2622.9,900.2,2509.9,1195,2502.3,1173.9z"/><path d="M3679.6,1062.9c-24.9-80.4-49.8-162.7-53.6-180c-9.6-30.6,3.8-34.5,97.6-34.5c65.1,0,107.2,7.6,107.2,21c0,19.1-97.6,342.7-103.4,342.7C3727.5,1212.2,3704.5,1145.2,3679.6,1062.9z"/><path d="M5496.5,1087.8V944.2h76.6c97.6,0,162.7,30.6,189.5,90c30.6,68.9,26.8,97.6-26.8,149.3c-36.4,38.3-65.1,47.9-143.6,47.9h-95.7V1087.8z"/><path d="M6396.2,1078.2V925h84.2c118.7,0,183.8,55.5,183.8,155.1c0,107.2-49.8,151.3-172.3,151.3h-95.7V1078.2z"/></g></g>
</svg>